<svg width="32" height="33" viewBox="0 0 32 33" fill="none" xmlns="http://www.w3.org/2000/svg">
<path d="M26 10.25L24.586 11.664L28.172 15.25L20 15.25V17.25H28.172L24.586 20.836L26 22.25L32 16.25L26 10.25Z" fill="#133D7A"/>
<path d="M16.0002 22.25C16.7883 22.2511 17.5689 22.0965 18.297 21.795C19.0252 21.4934 19.6866 21.051 20.2432 20.493L16.0002 16.25L20.2432 12.007C19.5454 11.3094 18.6864 10.7946 17.7423 10.5082C16.7981 10.2219 15.7978 10.1728 14.8301 10.3653C13.8625 10.5578 12.9572 10.986 12.1945 11.612C11.4318 12.2379 10.8352 13.0423 10.4576 13.9538C10.0801 14.8653 9.93308 15.8559 10.0297 16.8378C10.1264 17.8197 10.4637 18.7627 11.0118 19.5831C11.5599 20.4035 12.3019 21.0761 13.172 21.5413C14.0421 22.0064 15.0135 22.2499 16.0002 22.25Z" fill="#133D7A"/>
<path d="M16 30.25C17.8384 30.2511 19.6589 29.889 21.357 29.1846C23.0551 28.4801 24.5973 27.4472 25.895 26.145L24.481 24.731C22.8033 26.4104 20.6651 27.5545 18.337 28.0185C16.0089 28.4825 13.5955 28.2456 11.4021 27.3377C9.20864 26.4298 7.33378 24.8918 6.01466 22.9181C4.69555 20.9444 3.99146 18.6239 3.99146 16.25C3.99146 13.8761 4.69555 11.5555 6.01466 9.5819C7.33378 7.60825 9.20864 6.07018 11.4021 5.16229C13.5955 4.25439 16.0089 4.01746 18.337 4.48146C20.6651 4.94547 22.8033 6.08956 24.481 7.769L25.895 6.355C24.2673 4.72744 22.2632 3.52645 20.0604 2.85842C17.8576 2.19038 15.5241 2.07591 13.2665 2.52516C11.0089 2.97441 8.89697 3.9735 7.11773 5.43394C5.3385 6.89437 3.94691 8.77107 3.06623 10.8978C2.18554 13.0245 1.84296 15.3356 2.06881 17.6264C2.29467 19.9171 3.08199 22.1168 4.36104 24.0306C5.64009 25.9444 7.37139 27.5132 9.40158 28.598C11.4318 29.6829 13.6982 30.2503 16 30.25Z" fill="#133D7A"/>
</svg>
